<svg version="1.1" baseProfile="tiny" id="Layer_1" class="header-bcg" xmlns="http://www.w3.org/2000/svg" xmlns:xlink="http://www.w3.org/1999/xlink" x="0px" y="0px" viewBox="0 0 1061.5 916.1" overflow="visible" xml:space="preserve">
            <path fill="#1A7FBD" d="M473.9,16.7c7.9,8.7,15.6,16.9,23,25.5c9,10.5,21.1,16.3,34.1,16.7c12.1,0.4,23.9-4.5,32.8-13.7
                c10.2-10.7,20-21.9,30.1-32.7c1.5-1.6,4.1-2.9,6.2-2.9c83.5-0.1,167-0.1,250.5-0.1c1,0,2,0,3.5,0c0,5.1,0,10,0,15.6
                c6.1-1.7,11.5-3.2,16.9-4.6c22.9-6.1,46.3-9.8,70-10.5c35.8-1.2,71.6-1.7,107.4-2.5c0.7,0,1.3,0.1,2.9,0.2
                c0.7,134.2,1.3,268.5,2,403.3c-2.3,0.1-3.9,0.3-5.5,0.3c-46.8,0-93.6,0.1-140.4,0c-15.9,0-27.8,5.8-35.4,20.4
                c-9.1,17.4-14.9,35.9-15.7,55.3c-1.5,36.6-1.9,73.3-2.1,109.9c-0.3,68-0.1,136-0.2,204c0,35.7,0,71.3,0,107.8c-1.9,0-3.9,0-5.8,0
                c-166.5,0-333,0-499.5,0c-69.2,0-128.2-51.3-137.9-119.8c-1-7.4-1.6-14.9-1.6-22.4c-0.1-120.5-0.1-241-0.1-361.5c0-2,0-4,0-6.7
                c-2.2,0-4.1,0-6,0c-20.7-0.1-41.4,0.5-62-0.6c-55.8-3-105.1-41.2-123.1-94.1c-6-17.6-7.5-35.7-7.5-54.1
                c0.2-78.2,0.1-156.3,0.1-234.5c0-1.6,0-3.2,0-5.4c2.6,0,4.7,0,6.8,0c146.7,0,293.3,0.1,440-0.2C464.5,9.3,469.9,10.4,473.9,16.7
                M852.5,408.4c12.8-18.5,31.3-25.9,52.9-26.1c37.5-0.4,75-0.1,112.5-0.1c1.9,0,3.8,0,6.4,0c-0.6-115.6-1.2-230.2-1.8-343.8
                c-22.6,0-44.1,0-65.6,0c-44.2,0-86.5,9.1-126.9,26.9c-1.3,0.6-2.7,1-4.8,1.7c0-9.8,0-19,0-28.4c-1.5-0.1-2.5-0.1-3.4-0.1
                c-69.7,0-139.3,0-209,0.1c-2,0-4.5,1.2-5.9,2.7c-6.3,6.6-12.4,13.5-18.5,20.3c-8.1,9.1-17.7,16.3-29.2,20.4
                c-14.4,5.2-28.7,9.1-44.4,3.6c-14.5-5-27.7-11.3-38.1-22.6c-6.3-6.9-12.7-13.7-18.7-20.8c-2.4-2.8-4.8-3.8-8.5-3.8
                c-134.7,0.1-269.3,0.1-404,0.1c-1.8,0-3.6,0-5.4,0c-0.1,1.8-0.2,2.9-0.2,4.1c0,72.1,0,144.2,0,216.3c0,12.4,2.2,24.5,6.3,36.2
                c14.5,41.6,53.3,71.5,97.2,73.5c23.3,1.1,46.6,0.5,70,0.6c8.2,0,16.5,0,24.8,0c0,15.4,0,29.7,0,44c0.1,105.8,0.1,211.7,0.2,317.5
                c0,17.5-1,35.2,1.2,52.4c7.1,56.1,54.1,96.5,110.7,96.5c156.3,0,312.7,0,469,0c1.9,0,3.8,0,6,0c0-2.2,0-3.7,0-5.2
            c0-97.5-0.2-195,0.1-292.4c0.1-34.9-2-70,2.9-104.8C831.6,452.8,838.3,429.6,852.5,408.4z"/>
                <path fill="#187EBD" d="M806.5,439c-9.6,33.2-10.5,67-10.4,100.8c0.2,102.1,0.1,204.1,0.1,306.2c0,1.1-0.1,2.3-0.2,3.6
                c-88,0-175.7,0-263.8,0c0-243.5,0-486.9,0-730.9c6.1-1.6,12.4-3.5,18.9-4.8c25.9-5.3,47-18.4,63.3-38.8c5.3-6.7,11.1-8.7,19.5-8.7
                c52,0.4,104,0.2,156,0.2c2,0,3.9,0,6.4,0c0,16.2,0,31.9,0,48.7c30.1-18.5,61.1-32.5,94.6-40.8c33.5-8.3,67.6-7.9,102.9-8.3
                c0.5,95.3,1,190.4,1.5,286.3c-2.5,0-4.2,0-6,0c-28.7,0-57.3-0.6-86,0.2c-27,0.8-51,9.9-68.8,31.1C820.9,399.8,812.6,418.7,806.5,439
                M626.3,285.5c21.9,0,43.9,0,66.4,0c0,22.3,0,44.1,0,66.9c2.2-1.5,3.6-2.3,4.8-3.3c12.2-10.1,18.7-23.1,18.6-39.1
                c-0.1-21-14-40-33.8-46.5c-20.6-6.7-43,0.6-55.4,18C626.2,282.6,625.9,284,626.3,285.5 M656.3,358.9c9.1,1.8,17.9,1.6,25.7-1.5
                c-20.7-20.7-41.4-41.4-61.9-61.9C609.4,320.3,626.3,351.2,656.3,358.9z"/>
                <path fill="#FDFEFF" d="M625.9,285.4c0.1-1.4,0.3-2.8,1.1-3.9c12.4-17.4,34.8-24.7,55.4-18c19.9,6.4,33.7,25.5,33.8,46.5c0.1,16.1-6.4,29-18.6,39.1c-1.2,1-2.6,1.8-4.8,3.3c0-22.8,0-44.6,0-66.9C670.2,285.5,648.2,285.5,625.9,285.4z"/>
                <path fill="#FBFDFE" d="M655.9,358.8c-29.6-7.5-46.5-38.4-35.8-63.4c20.5,20.5,41.2,41.2,61.9,61.9C674.2,360.4,665.3,360.7,655.9,358.8z"/>
        </svg>
