<?xml version="1.0" encoding="utf-8"?>
<!-- Generator: Adobe Illustrator 16.0.0, SVG Export Plug-In . SVG Version: 6.00 Build 0)  -->
<!DOCTYPE svg PUBLIC "-//W3C//DTD SVG 1.1//EN" "http://www.w3.org/Graphics/SVG/1.1/DTD/svg11.dtd">
<svg version="1.1" id="Layer_1" xmlns="http://www.w3.org/2000/svg" xmlns:xlink="http://www.w3.org/1999/xlink" x="0px" y="0px"
	 width="960px" height="560px" viewBox="0 0 960 560" style="enable-background:new 0 0 960 560;" xml:space="preserve">
<style type="text/css">
<![CDATA[
	.st0{fill:#2A60B8;}
]]>
</style>
<path class="st0" d="M258.997,268.857v18c-3.375,1.231-4.393,1.714-6.375,1.714c-3.375,0-4.661-1.714-8.036-1.714
	c-1.071,0-1.929,0.214-2.732,0.428v-3.428c0.803-0.215,1.661-0.429,2.732-0.429c3.375,0,4.661,1.714,8.036,1.714
	c1.071,0,1.875-0.16,2.946-0.481v-11.143c-1.071,0.321-1.875,0.482-2.946,0.482c-3.375,0-4.661-1.714-8.036-1.714
	c-2.732,0-4.018,1.125-6.161,1.554v16.446c0.012,0.936-0.736,1.703-1.671,1.715c-0.014,0-0.028,0-0.043,0
	c-0.935,0.012-1.702-0.736-1.714-1.671c0-0.015,0-0.029,0-0.044v-20.571c-0.012-0.935,0.736-1.702,1.671-1.714
	c0.014,0,0.029,0,0.043,0c0.935-0.012,1.703,0.736,1.714,1.671c0,0.014,0,0.029,0,0.043v0.696c2.143-0.428,3.429-1.553,6.161-1.553
	c3.375,0,4.661,1.714,8.036,1.714C254.604,270.572,255.622,270.089,258.997,268.857z"/>
</svg>
