<?xml version="1.0" encoding="utf-8"?>
<!-- Generator: Adobe Illustrator 16.0.0, SVG Export Plug-In . SVG Version: 6.00 Build 0)  -->
<!DOCTYPE svg PUBLIC "-//W3C//DTD SVG 1.1//EN" "http://www.w3.org/Graphics/SVG/1.1/DTD/svg11.dtd">
<svg version="1.1" id="Layer_1" xmlns="http://www.w3.org/2000/svg" xmlns:xlink="http://www.w3.org/1999/xlink" x="0px" y="0px"
	 width="960px" height="560px" viewBox="0 0 960 560" style="enable-background:new 0 0 960 560;" xml:space="preserve">
<style type="text/css">
<![CDATA[
	.st0{fill:#193866;}
	.st1{fill:#1A7EBD;}
	.st2{fill:#FFFFFF;stroke:#193866;stroke-miterlimit:10;}
]]>
</style>
<g>
	<g>
		<polyline class="st0" points="340.813,161.739 341.298,237.353 400.915,237.353 400.915,400.696 554.08,400.696 554.08,237.837 
			620,237.353 620,161.739 505.127,160.77 478.468,177.25 453.263,161.739 		"/>
		<polygon class="st1" points="478.468,177.25 480.406,400.696 554.08,400.696 554.08,237.837 620,237.353 620,161.739 
			505.127,160.77 		"/>
	</g>
	<circle class="st2" cx="515.473" cy="225.388" r="17.207"/>
	<g>
		<polygon class="st0" points="509.397,227.919 504.605,229.513 500.829,226.155 501.845,221.206 506.646,219.612 510.42,222.97 		
			"/>
		<polygon class="st0" points="512.519,237.82 507.719,239.413 503.942,236.056 504.965,231.106 509.766,229.513 513.541,232.87 		
			"/>
		<polygon class="st0" points="519.501,229.303 514.71,230.896 510.934,227.539 511.947,222.589 516.741,220.996 520.518,224.352 		
			"/>
		<polygon class="st0" points="514.71,219.402 509.91,220.996 506.132,217.639 507.156,212.688 511.947,211.095 515.725,214.452 		
			"/>
		<polygon class="st0" points="525.482,219.402 520.688,220.996 516.912,217.639 517.93,212.688 522.722,211.095 526.498,214.452 		
			"/>
		<polygon class="st0" points="524.295,239.203 519.501,240.797 515.725,237.439 516.741,232.489 521.541,230.896 525.317,234.253 
					"/>
		<polygon class="st0" points="529.094,229.303 524.295,230.896 520.518,227.539 521.541,222.589 526.34,220.996 530.116,224.352 		
			"/>
	</g>
</g>
</svg>
